# Blender 5.1.2
# www.blender.org
o 12931_WoodenChessPawnSideA_v1_l3
v -0.033697 0.973098 -0.000088
v 1.091925 0.349799 0.227563
v 1.000746 0.322885 0.556566
v 0.845292 0.344747 0.917441
v 0.681479 -0.205905 1.350564
v 0.378902 0.146502 1.842786
v 0.355584 0.081908 2.342507
v 0.430407 0.085806 2.375133
v 0.411547 0.098840 2.470852
v 0.443802 0.003669 2.805378
v 0.560926 0.080819 3.357714
v 0.319846 0.276674 3.854531
v 0.163854 0.065277 4.006646
v 0.945828 0.236251 0.000040
v 0.760808 0.852122 0.222432
v 0.713512 0.214526 1.135467
v 0.621257 0.471691 1.226184
v 0.636419 0.320104 1.342826
v 0.533641 0.296103 1.412345
v 0.515771 0.076197 1.557810
v 0.166893 0.589226 2.626314
v 0.585479 0.160075 2.627111
v 0.255046 0.169561 2.934915
v 0.350448 0.332815 3.116400
v 0.389922 0.419976 3.444872
v 0.581586 0.771133 -0.000054
v 0.580202 0.767452 0.364756
v 0.748667 0.748245 0.647965
v 0.589028 0.697934 0.924922
v 0.425448 0.566111 1.337089
v 0.255388 0.348238 1.730945
v 0.127331 0.356211 2.343814
v 0.235398 0.358459 2.775051
v 0.264405 1.117510 0.235448
v 0.405581 0.999191 0.682380
v 0.091431 0.909262 0.911855
v 0.416723 0.619947 1.135252
v 0.296068 0.544157 1.411246
v 0.217910 0.395023 2.377112
v 0.176914 0.404408 2.441693
v 0.252794 0.404412 2.538875
v 0.059650 0.315699 2.932477
v -0.052984 0.320157 3.933677
v -0.086467 0.977041 0.371678
v -0.211318 1.050261 0.634102
v 0.208171 0.740071 1.172247
v -0.104607 0.757730 1.232542
v -0.116000 0.601777 1.413264
v 0.048041 0.427365 1.689284
v -0.273033 0.399579 2.524784
v -0.066238 0.414651 2.769224
v 0.004630 0.449371 2.820046
v -0.377095 0.254853 2.823487
v 0.040337 0.558425 3.341304
v -0.292733 0.383264 3.112937
v -0.394431 0.428437 3.400777
v 0.039968 0.539627 3.664116
v -0.278738 0.390385 3.761464
v -0.545733 0.790589 0.002472
v -0.342413 1.086396 0.219123
v -0.665121 0.694590 0.362819
v -0.790898 0.705305 0.610358
v -0.380369 0.826528 0.910966
v -0.476614 0.583670 1.139146
v -0.435670 0.582453 1.307662
v -0.002108 0.730029 1.352823
v -0.368830 0.479741 1.413927
v -0.298144 0.288180 1.844615
v -0.206746 0.398139 2.395778
v -0.372738 0.467234 2.631986
v -0.294894 0.310469 2.778449
v -0.217523 0.224024 2.935951
v -0.222878 0.108545 3.973758
v -0.874238 0.744447 0.219900
v -0.915651 0.284747 0.363247
v -0.727805 0.558419 0.909104
v -0.625061 0.442575 1.229326
v -0.284148 0.247109 2.340075
v -0.512245 0.022760 3.728354
v -0.868517 0.421125 -0.000288
v -0.999403 0.345249 0.686805
v -0.839701 0.347643 0.932825
v -0.726363 0.148969 1.132050
v -0.547807 0.266159 1.413143
v -0.390434 0.209545 2.373214
v -0.416329 0.089659 2.466195
v -0.576957 0.159045 2.635072
v -0.422698 0.028356 2.770165
v -0.939719 -0.284654 -0.000985
v -1.142597 0.095143 0.221536
v -0.978152 -0.079851 0.362961
v -0.907950 -0.057886 0.912348
v -0.682897 -0.309138 1.129830
v -0.757237 0.023928 1.249277
v -0.695315 0.174267 1.349516
v -0.599312 -0.011992 1.417766
v -0.392630 -0.053282 1.903920
v -0.354822 -0.092368 2.341520
v -0.409830 -0.172018 2.390793
v -0.346511 -0.258979 2.772536
v -0.422906 -0.103817 2.834672
v -0.313268 -0.018219 2.930088
v -0.407523 -0.249006 3.115286
v -0.541659 0.033654 3.219344
v -0.430925 -0.369545 3.444969
v -0.985653 -0.594823 0.231080
v -0.705437 -0.655026 0.363884
v -0.902753 -0.549297 0.594247
v -1.004515 -0.217999 0.751912
v -0.623099 -0.441380 1.246858
v -0.469561 -0.410888 1.412636
v -0.328468 -0.358142 1.593188
v -0.189440 -0.311513 2.339739
v -0.534657 -0.287464 2.632644
v -0.378206 -0.246424 3.811378
v -0.475316 -0.841769 -0.001148
v -0.490779 -1.030868 0.213186
v -0.736076 -0.546887 0.915200
v -0.329521 -0.673163 1.135243
v -0.242917 -0.665462 1.334797
v -0.582380 -0.431427 1.353107
v -0.315360 -0.362027 2.540678
v -0.126944 -0.590901 2.632746
v -0.279998 -0.345250 2.813846
v -0.194029 -0.243335 2.935865
v -0.169128 -0.469205 3.750548
v -0.006532 -0.958642 0.000441
v 0.069780 -1.149403 0.227870
v 0.165703 -1.046668 0.615010
v -0.473447 -0.968177 0.639237
v -0.359950 -0.841459 0.908799
v -0.224005 -0.735851 1.221254
v -0.158311 -0.375718 1.825370
v -0.243570 -0.368906 2.406393
v 0.087907 -0.430012 2.374648
v 0.065453 -0.424606 2.470620
v 0.000565 -0.444998 2.834327
v 0.060387 -0.310939 2.933457
v -0.060569 -0.543016 3.217721
v 0.013757 -0.255054 3.989165
v -0.045388 -0.985613 0.368249
v 0.362562 -0.839464 0.912901
v -0.055622 -0.903883 0.917995
v 0.165839 -0.725784 1.133143
v 0.096529 -0.702679 1.332771
v -0.091196 -0.595146 1.421389
v 0.127200 -0.344318 2.339935
v 0.003683 -0.430212 2.776251
v 0.246481 -0.402514 3.803477
v 0.423809 -0.865630 -0.000227
v 0.653257 -0.941396 0.224161
v 0.669451 -0.831077 0.604775
v 0.396808 -0.674678 1.243010
v 0.188406 -0.583768 1.409975
v 0.406512 -0.273979 1.589022
v 0.158525 -0.374723 1.888631
v 0.351764 -0.323625 2.540159
v 0.293403 -0.310859 2.769297
v 0.270610 -0.500404 3.435860
v 0.688345 -0.681064 0.365296
v 0.776002 -0.507883 0.897396
v 0.656978 -0.379847 1.134523
v 0.449286 -0.548801 1.332530
v 0.612015 -0.106471 1.411057
v 0.380438 -0.478373 1.414282
v 0.298653 -0.177315 2.330399
v 0.385080 -0.229030 2.405295
v 0.338206 -0.266293 2.838852
v 0.366388 -0.326788 3.122291
v 0.461780 0.031380 3.807958
v 0.856472 -0.457662 0.001237
v 1.126176 -0.000394 0.188826
v 1.035449 -0.491802 0.238047
v 0.940687 -0.186432 0.365264
v 1.054854 -0.175417 0.630348
v 0.905812 -0.145406 0.906214
v 0.763354 -0.102653 1.237950
v 0.439246 -0.439976 2.633557
v 0.411111 -0.092841 2.768337
v 0.318095 -0.064843 2.930933
v 0.512057 -0.237230 3.520260
v 0.908656 0.322326 0.365221
v 0.353503 0.269108 2.824665
v 0.069200 -0.167100 -0.000450
s 1
f 14 116 1
f 14 2 172
f 16 17 177
f 5 177 18
f 18 19 164
f 179 22 10
f 10 183 180
f 23 24 180
f 170 11 25
f 170 12 13
f 14 15 2
f 3 27 28
f 18 38 19
f 31 19 38
f 31 20 19
f 32 6 31
f 6 32 7
f 9 8 39
f 39 40 9
f 40 41 9
f 22 9 41
f 33 183 10
f 25 11 24
f 170 25 12
f 15 34 27
f 4 28 35
f 17 46 18
f 46 30 18
f 66 38 30
f 38 49 31
f 33 52 183
f 23 42 24
f 1 34 26
f 36 35 45
f 37 36 46
f 48 38 66
f 48 49 38
f 41 50 21
f 21 51 33
f 51 52 33
f 24 54 25
f 57 43 12
f 73 13 43
f 1 60 34
f 44 34 60
f 45 63 36
f 36 63 46
f 49 48 67
f 49 67 68
f 32 49 78
f 40 69 50
f 70 21 50
f 72 52 53
f 55 42 72
f 55 56 54
f 56 57 54
f 57 58 43
f 1 59 60
f 61 44 74
f 45 62 76
f 63 76 64
f 69 78 85
f 51 71 52
f 73 43 58
f 80 74 59
f 75 74 90
f 62 75 81
f 88 53 71
f 102 55 72
f 55 104 56
f 56 79 58
f 73 58 79
f 80 89 90
f 80 90 74
f 90 91 75
f 76 81 92
f 92 82 76
f 84 95 96
f 96 68 84
f 78 68 97
f 85 99 86
f 70 87 88
f 88 101 53
f 72 53 102
f 140 13 73
f 91 90 106
f 108 109 91
f 109 118 92
f 83 92 93
f 94 93 110
f 95 94 121
f 121 96 95
f 121 111 96
f 87 86 114
f 110 121 94
f 112 97 111
f 101 125 102
f 103 102 125
f 103 105 104
f 130 131 118
f 118 131 119
f 93 119 110
f 110 119 132
f 146 121 120
f 133 112 146
f 113 134 99
f 124 100 148
f 105 139 126
f 115 105 126
f 117 116 127
f 131 130 143
f 145 132 144
f 145 120 132
f 154 120 145
f 133 156 113
f 113 156 147
f 134 135 136
f 148 100 123
f 148 137 124
f 140 126 149
f 127 150 128
f 152 129 141
f 142 129 152
f 142 144 143
f 144 153 145
f 154 165 146
f 156 146 165
f 137 148 158
f 150 151 128
f 151 150 171
f 141 151 160
f 144 142 162
f 162 142 161
f 153 144 162
f 145 163 154
f 155 156 165
f 136 135 167
f 168 137 158
f 169 138 180
f 139 169 159
f 149 159 181
f 175 161 152
f 162 161 176
f 162 177 153
f 177 163 153
f 164 163 5
f 164 155 165
f 179 158 178
f 179 168 158
f 172 173 171
f 3 175 174
f 177 162 16
f 155 20 166
f 157 9 178
f 22 179 178
f 169 180 11
f 170 181 11
f 2 182 174
f 27 182 15
f 182 2 15
f 44 27 34
f 117 141 107
f 128 141 117
f 102 53 101
f 124 137 138
f 171 150 14
f 116 150 127
f 80 1 89
f 26 14 1
f 3 174 182
f 4 176 175
f 4 175 3
f 4 16 176
f 18 177 17
f 5 18 164
f 164 19 20
f 166 20 6
f 23 180 183
f 11 180 24
f 14 26 15
f 3 182 27
f 4 3 28
f 16 4 29
f 16 29 37
f 17 16 37
f 18 30 38
f 6 20 31
f 39 7 32
f 39 8 7
f 41 21 22
f 33 22 21
f 22 33 10
f 26 34 15
f 35 28 27
f 29 4 35
f 29 35 36
f 17 37 46
f 32 31 49
f 23 183 42
f 52 42 183
f 57 12 25
f 13 12 43
f 27 44 35
f 45 35 44
f 37 29 36
f 47 30 46
f 47 66 30
f 69 39 32
f 41 40 50
f 24 42 54
f 25 54 57
f 63 64 46
f 47 46 64
f 66 47 65
f 67 48 66
f 78 49 68
f 69 32 78
f 39 69 40
f 21 70 51
f 72 42 52
f 42 55 54
f 59 74 60
f 44 60 74
f 61 45 44
f 61 62 45
f 63 45 76
f 47 64 65
f 65 64 77
f 65 67 66
f 68 67 84
f 71 51 70
f 52 71 53
f 57 56 58
f 62 61 75
f 76 62 81
f 64 76 82
f 83 64 82
f 83 77 64
f 83 94 77
f 95 65 77
f 95 84 65
f 84 67 65
f 86 50 69
f 70 50 87
f 88 71 70
f 104 55 102
f 89 1 116
f 81 75 91
f 109 81 91
f 92 81 109
f 82 92 83
f 95 77 94
f 96 97 68
f 78 97 98
f 85 78 98
f 99 85 98
f 50 86 87
f 56 104 79
f 89 106 90
f 118 93 92
f 93 94 83
f 96 111 97
f 99 122 86
f 87 114 100
f 88 87 100
f 88 100 101
f 103 104 102
f 105 79 104
f 73 79 115
f 140 73 115
f 116 106 89
f 91 107 108
f 118 109 108
f 108 130 118
f 119 93 118
f 112 113 97
f 97 113 98
f 113 99 98
f 134 122 99
f 86 122 114
f 124 101 100
f 125 101 124
f 79 105 115
f 106 116 117
f 107 106 117
f 108 107 130
f 141 130 107
f 110 132 120
f 110 120 121
f 111 121 146
f 111 146 112
f 113 112 133
f 123 114 122
f 123 100 114
f 139 105 103
f 139 103 125
f 140 115 126
f 117 127 128
f 130 141 129
f 143 130 129
f 143 119 131
f 144 119 143
f 144 132 119
f 154 146 120
f 146 156 133
f 135 113 147
f 134 113 135
f 134 136 122
f 136 123 122
f 125 124 138
f 125 138 139
f 128 151 141
f 143 129 142
f 163 145 153
f 178 123 136
f 148 123 178
f 139 138 169
f 159 149 126
f 126 139 159
f 160 151 173
f 141 160 152
f 161 142 152
f 154 163 165
f 156 166 147
f 135 147 166
f 167 135 166
f 167 157 136
f 136 157 178
f 148 178 158
f 137 168 138
f 180 138 168
f 171 173 151
f 174 160 173
f 174 175 160
f 160 175 152
f 5 163 177
f 164 165 163
f 155 166 156
f 169 181 159
f 149 181 170
f 149 170 140
f 13 140 170
f 171 14 172
f 2 173 172
f 174 173 2
f 176 161 175
f 16 162 176
f 155 164 20
f 7 166 6
f 166 7 8
f 167 166 8
f 9 167 8
f 157 167 9
f 22 178 9
f 168 179 10
f 180 168 10
f 11 181 169
f 74 75 61
f 106 107 91
f 85 86 69
f 59 1 80
f 150 116 14
